<svg xmlns="http://www.w3.org/2000/svg" width="72" height="72" viewBox="0 0 72 72">
  <rect width="72" height="72" rx="18" fill="#0E1B26"/>
  <rect width="72" height="72" rx="18" fill="#2496ED" opacity="0.12"/>
  <g transform="translate(13, 17)">
    <!-- Docker Containers -->
    <rect x="7" y="10" width="5.5" height="5.5" rx="0.5" fill="#2496ED"/>
    <rect x="13.5" y="10" width="5.5" height="5.5" rx="0.5" fill="#2496ED"/>
    <rect x="20" y="10" width="5.5" height="5.5" rx="0.5" fill="#2496ED"/>
    <rect x="13.5" y="3.5" width="5.5" height="5.5" rx="0.5" fill="#2496ED"/>
    <rect x="20" y="3.5" width="5.5" height="5.5" rx="0.5" fill="#2496ED"/>
    <rect x="26.5" y="10" width="5.5" height="5.5" rx="0.5" fill="#2496ED"/>
    <rect x="20" y="-3" width="5.5" height="5.5" rx="0.5" fill="#2496ED"/>
    <!-- Docker Whale Body -->
    <path fill="#2496ED" d="M45.2 16.8c-1.4-.4-3.8.3-4.7.7-1.1.5-2.5 1-4.2 1-10.4 0-16.7-5.8-24.8-5.8H1v10.5c0 6.6 4.7 12 11.2 13 8.3 1.3 22.8.9 29.5-6.2 3.1-3.3 4.8-7.8 4.8-12.2.1-.4-.6-1-1.3-1z"/>
    <!-- Docker Whale Eye -->
    <circle cx="36" cy="23.5" r="1.5" fill="#FFFFFF"/>
    <!-- Water Spray -->
    <path fill="#0DB7ED" d="M41 12c1-2 3-3 5-3s2 2 1 4-3 2-4 1c-1-1-2-1-2-2z"/>
  </g>
</svg>